<svg xmlns="http://www.w3.org/2000/svg" xmlns:xlink="http://www.w3.org/1999/xlink" width="546.866" height="382" viewBox="0 0 546.866 382"><defs><linearGradient id="linear-gradient" x1="0.808" y1="0.286" x2="0.337" y2="0.646" gradientUnits="objectBoundingBox"><stop offset="0" stop-color="#42b8e5"></stop><stop offset="1" stop-color="#1b58ac"></stop></linearGradient><clipPath id="clip-path"><rect id="Rectangle_7416" data-name="Rectangle 7416" width="140.045" height="126.857" fill="none"></rect></clipPath><clipPath id="clip-path-2"><path id="Path_40640" data-name="Path 40640" d="M268.345,73.135H125.377V221.5h25.941a42.36,42.36,0,0,0,82.29,0h34.737Z" transform="translate(-125.377 -73.135)" fill="none"></path></clipPath><linearGradient id="linear-gradient-2" x1="-33.225" y1="1.364" x2="-33.044" y2="0.452" gradientUnits="objectBoundingBox"><stop offset="0" stop-color="#aa80f9"></stop><stop offset="0.996" stop-color="#6165d7"></stop></linearGradient><linearGradient id="linear-gradient-3" x1="-1.148" y1="-0.374" x2="-1.673" y2="1.549" gradientUnits="objectBoundingBox"><stop offset="0.004" stop-color="#e38ddd"></stop><stop offset="1" stop-color="#9571f6"></stop></linearGradient><linearGradient id="linear-gradient-4" x1="-1.489" y1="0.362" x2="-1.497" y2="1.711" gradientUnits="objectBoundingBox"><stop offset="0" stop-color="#444b8c"></stop><stop offset="0.996" stop-color="#26264f"></stop></linearGradient><linearGradient id="linear-gradient-5" x1="-1.886" y1="0.5" x2="-0.886" y2="0.5" xlink:href="#linear-gradient-3"></linearGradient><linearGradient id="linear-gradient-6" x1="-13.604" y1="4.025" x2="-14.232" y2="15.031" xlink:href="#linear-gradient-4"></linearGradient><linearGradient id="linear-gradient-7" x1="-13.604" y1="3.987" x2="-14.231" y2="14.874" xlink:href="#linear-gradient-4"></linearGradient><linearGradient id="linear-gradient-8" x1="-11.868" y1="4.007" x2="-12.497" y2="14.955" xlink:href="#linear-gradient-4"></linearGradient><linearGradient id="linear-gradient-9" x1="-11.868" y1="3.969" x2="-12.495" y2="14.8" xlink:href="#linear-gradient-4"></linearGradient><linearGradient id="linear-gradient-10" x1="-10.072" y1="3.989" x2="-10.702" y2="14.882" xlink:href="#linear-gradient-4"></linearGradient><linearGradient id="linear-gradient-11" x1="-10.072" y1="3.951" x2="-10.7" y2="14.726" xlink:href="#linear-gradient-4"></linearGradient><linearGradient id="linear-gradient-12" x1="-8.217" y1="3.97" x2="-8.848" y2="14.803" xlink:href="#linear-gradient-4"></linearGradient><linearGradient id="linear-gradient-13" x1="-8.217" y1="3.933" x2="-8.846" y2="14.65" xlink:href="#linear-gradient-4"></linearGradient><linearGradient id="linear-gradient-14" x1="-6.303" y1="3.953" x2="-6.934" y2="14.733" xlink:href="#linear-gradient-4"></linearGradient><linearGradient id="linear-gradient-15" x1="-6.303" y1="3.916" x2="-6.933" y2="14.583" xlink:href="#linear-gradient-4"></linearGradient><linearGradient id="linear-gradient-16" x1="-1.37" y1="0.04" x2="-1.313" y2="2.763" xlink:href="#linear-gradient-3"></linearGradient></defs><g id="Field_Service_Management_Software" data-name="Field Service Management Software" transform="translate(-60.373 -1212.5)"><circle id="Ellipse_546" data-name="Ellipse 546" cx="191" cy="191" r="191" transform="translate(194 1212.5)" opacity="0.5" fill="url(#linear-gradient)"></circle><g id="Group_10567" data-name="Group 10567" transform="translate(-201 162.344)"><g id="Group_10566" data-name="Group 10566" transform="translate(435 1087)"><g id="check-in-1" transform="translate(208.811 0)"><path id="Path_6470" data-name="Path 6470" d="M227.924,37.248a14.011,14.011,0,0,1,28.021-.315c0,.105,0,.211,0,.315,0,10.955-14.011,25.777-14.011,25.777S227.924,48.2,227.924,37.248Z" transform="translate(-227.32 -22.467)" fill="#ff75af"></path><path id="Path_6471" data-name="Path 6471" d="M230.5,35.872A14.169,14.169,0,0,1,237.087,23.9a14.182,14.182,0,0,0-9.163,13.265c0,10.955,14.177,25.777,14.177,25.777s.729-.765,1.857-2.071C241.074,57.675,230.5,45.331,230.5,35.872Z" transform="translate(-227.32 -22.379)" fill="#ff599e"></path><ellipse id="Ellipse_95" data-name="Ellipse 95" cx="10.144" cy="10.31" rx="10.144" ry="10.31" transform="translate(4.471 4.471)" fill="#ffa8cc"></ellipse><path id="Path_6472" data-name="Path 6472" d="M234.169,37.654l2.577-1.933,2.578,2.578,7.089-7.089,1.933,2.578-9.022,8.378Z" transform="translate(-226.642 -21.585)" fill="#fff"></path><path id="Path_6473" data-name="Path 6473" d="M241.994,22.527a14.716,14.716,0,0,0-14.615,14.782,22.273,22.273,0,0,0,2.244,8.9,54.079,54.079,0,0,0,4.873,8.443,83.637,83.637,0,0,0,7.066,8.852.6.6,0,0,0,.847.017l.017-.017a83.636,83.636,0,0,0,7.066-8.852,54.079,54.079,0,0,0,4.873-8.443,22.282,22.282,0,0,0,2.244-8.9A14.717,14.717,0,0,0,241.994,22.527Zm6.527,31.419a84.323,84.323,0,0,1-6.527,8.251,84.327,84.327,0,0,1-6.528-8.251c-4.509-6.532-6.892-12.285-6.892-16.637A13.421,13.421,0,1,1,255.414,37c0,.1,0,.205,0,.308,0,4.352-2.383,10.1-6.892,16.637Z" transform="translate(-227.379 -22.527)"></path><path id="Path_6474" data-name="Path 6474" d="M247.694,27.9a7.93,7.93,0,0,0-.681-.433.6.6,0,0,0-.549-.016.616.616,0,0,0-.262.83.6.6,0,0,0,.1.134,1.553,1.553,0,0,0,.326.222c.135.083.268.171.4.262a9.754,9.754,0,0,1,4.182,8.027,9.56,9.56,0,1,1-9.562-9.707,9.4,9.4,0,0,1,2.391.306.6.6,0,0,0,.723-.428V27.1a.6.6,0,0,0-.428-.736,10.611,10.611,0,0,0-2.687-.341A10.916,10.916,0,1,0,252.393,37.1c0-.055,0-.112,0-.167A10.965,10.965,0,0,0,247.694,27.9Z" transform="translate(-227.034 -22.148)"></path><path id="Path_6475" data-name="Path 6475" d="M237.305,35.354a.58.58,0,0,0-.773-.059l-2.523,1.933a.62.62,0,0,0-.1.869.5.5,0,0,0,.066.071l5.043,4.511a.588.588,0,0,0,.791-.011l8.827-8.378a.614.614,0,0,0,.071-.8l-1.892-2.578a.591.591,0,0,0-.89-.064l-6.517,6.662Zm8.975-3.165,1.163,1.587L239.4,41.414,235.3,37.753l1.529-1.172,2.159,2.207a.583.583,0,0,0,.824.013l.012-.013Z" transform="translate(-226.685 -21.644)"></path></g><g id="Group_10545" data-name="Group 10545" transform="translate(0 50.156)"><g id="Group_10544" data-name="Group 10544" clip-path="url(#clip-path)"><g id="Group_10543" data-name="Group 10543" transform="translate(31.109 15.094)"><path id="Path_40597" data-name="Path 40597" d="M234.8,177.174l-2.646-.4-6.481-.922a75.037,75.037,0,0,0-1.715-29.637l8.969-2.342a83.774,83.774,0,0,0-14.271-29.515l-7.4,5.562a75.206,75.206,0,0,0-22.144-19.767l4.669-7.968a84.667,84.667,0,0,0-30.944-10.8l-1.309,9.161a75.039,75.039,0,0,0-29.638,1.713l-2.341-8.97a83.876,83.876,0,0,0-29.515,14.275l5.562,7.4a75.177,75.177,0,0,0-19.767,22.144l-7.969-4.67a84.177,84.177,0,0,0-10.8,30.944l.076.014,6.032.858,3.054.438a75.165,75.165,0,0,0,1.711,29.637l-8.969,2.339q1.019,3.9,2.371,7.613A84.009,84.009,0,0,0,83.2,216.171l7.4-5.562a75.684,75.684,0,0,0,17.867,17.048q2.113,1.445,4.32,2.745l-4.669,7.969a84.5,84.5,0,0,0,30.908,10.8l.3-2.038,1.01-7.12a75.2,75.2,0,0,0,29.669-1.721l2.342,8.97a83.726,83.726,0,0,0,29.483-14.266l-5.562-7.4a75.4,75.4,0,0,0,19.8-22.153l7.969,4.67a84.75,84.75,0,0,0,10.792-30.944Zm-73.5,27.753c-.474.125-.953.239-1.429.345a40.952,40.952,0,1,1,1.429-.345Z" transform="translate(-67.065 -81.393)" fill="#1d60c4"></path></g></g></g><g id="Group_10546" data-name="Group 10546" transform="translate(67.108 110.876)"><path id="Path_40598" data-name="Path 40598" d="M102.462,143.783A12.968,12.968,0,0,0,106.33,147l.681-1.249a11.662,11.662,0,0,0,4.362,1.352l-.144,1.411a12.967,12.967,0,0,0,5.008-.46l-.088-.3-.313-1.06a11.55,11.55,0,0,0,4.037-2.132l.9,1.1a12.834,12.834,0,0,0,3.211-3.872l-1.249-.681a11.561,11.561,0,0,0,1.356-4.358l1.412.145a13.034,13.034,0,0,0-.463-5.012l0,0-.395.113-.965.284a11.5,11.5,0,0,0-2.128-4.033l1.105-.9a12.867,12.867,0,0,0-3.876-3.216l-.681,1.249a11.539,11.539,0,0,0-4.354-1.351l.144-1.412a13.034,13.034,0,0,0-5.012.463l.4,1.365a11.524,11.524,0,0,0-4.034,2.127l-.9-1.1a12.883,12.883,0,0,0-3.216,3.876l1.249.681a11.539,11.539,0,0,0-1.351,4.354l-1.411-.145a12.9,12.9,0,0,0,.463,5.014l.011,0,.9-.264.454-.134a11.544,11.544,0,0,0,2.128,4.034Zm5.669-4.613a5.71,5.71,0,1,1,8.033.828A5.707,5.707,0,0,1,108.13,139.17Z" transform="translate(-99.542 -122.554)" fill="none" stroke="#9fd1fc" stroke-width="2.406"></path></g><g id="cloud" transform="translate(162.419 79.519)"><path id="Path_40599" data-name="Path 40599" d="M204.073,99.691a4.778,4.778,0,0,0-9.137-2.505,3.337,3.337,0,0,0-5.559,2.493h-.624a3.236,3.236,0,0,0-3.226,3.226h0a3.235,3.235,0,0,0,3.226,3.226h15.083a3.235,3.235,0,0,0,3.226-3.226h0A3.235,3.235,0,0,0,204.073,99.691Z" transform="translate(-185.527 -94.265)" fill="#c9f5ff"></path></g><g id="Group_10547" data-name="Group 10547" transform="translate(74.659 106.271)"><path id="Path_40600" data-name="Path 40600" d="M282.635,215.518l-2.779-.307-6.813-.7a78.491,78.491,0,0,0-3.017-30.9L279.3,180.8a87.642,87.642,0,0,0-16.143-30.255l-7.5,6.12a78.68,78.68,0,0,0-23.963-19.742l4.55-8.521a88.623,88.623,0,0,0-32.784-10l-.99,9.628a78.164,78.164,0,0,0-17.8.213,79.363,79.363,0,0,0-13.1,2.807l-2.819-9.277q-2.9.878-5.691,1.941a87.22,87.22,0,0,0-24.562,14.2l6.118,7.506a78.592,78.592,0,0,0-19.276,23.1q-.234.424-.466.855l-1.6-.855-6.92-3.7q-.979,1.826-1.871,3.7a88.119,88.119,0,0,0-8.128,29.09l.082.012,6.337.646,3.209.33q-.288,2.807-.372,5.652a78.413,78.413,0,0,0,.617,12.377A79.616,79.616,0,0,0,119,229.5l-6.83,2.075-2.446.742q1.087,3.581,2.446,7a87.824,87.824,0,0,0,13.647,23.234l7.506-6.118A79.468,79.468,0,0,0,157.331,276.2l-4.55,8.523a88.418,88.418,0,0,0,32.748,10.006l.233-2.143.757-7.484a78.611,78.611,0,0,0,30.936-3.029l2.82,9.277A87.462,87.462,0,0,0,250.5,275.219l-6.12-7.508a78.809,78.809,0,0,0,19.775-23.972l8.523,4.55a88.613,88.613,0,0,0,10-32.784Zm-48.2,6.661a42.863,42.863,0,1,1,1.085-28.08A42.77,42.77,0,0,1,234.433,222.179Zm48.2-6.661-2.779-.307-6.813-.7a78.491,78.491,0,0,0-3.017-30.9L279.3,180.8a87.642,87.642,0,0,0-16.143-30.255l-7.5,6.12a78.68,78.68,0,0,0-23.963-19.742l4.55-8.521a88.623,88.623,0,0,0-32.784-10l-.99,9.628a78.164,78.164,0,0,0-17.8.213,79.363,79.363,0,0,0-13.1,2.807l-2.819-9.277q-2.9.878-5.691,1.941a87.22,87.22,0,0,0-24.562,14.2l6.118,7.506a78.592,78.592,0,0,0-19.276,23.1q-.234.424-.466.855l-1.6-.855-6.92-3.7q-.979,1.826-1.871,3.7a88.119,88.119,0,0,0-8.128,29.09l.082.012,6.337.646,3.209.33q-.288,2.807-.372,5.652a78.413,78.413,0,0,0,.617,12.377A79.616,79.616,0,0,0,119,229.5l-6.83,2.075-2.446.742q1.087,3.581,2.446,7a87.824,87.824,0,0,0,13.647,23.234l7.506-6.118A79.468,79.468,0,0,0,157.331,276.2l-4.55,8.523a88.418,88.418,0,0,0,32.748,10.006l.233-2.143.757-7.484a78.611,78.611,0,0,0,30.936-3.029l2.82,9.277A87.462,87.462,0,0,0,250.5,275.219l-6.12-7.508a78.809,78.809,0,0,0,19.775-23.972l8.523,4.55a88.613,88.613,0,0,0,10-32.784Zm-48.2,6.661a42.863,42.863,0,1,1,1.085-28.08A42.77,42.77,0,0,1,234.433,222.179Z" transform="translate(-106.354 -118.4)" fill="#9fd1fc"></path><path id="Path_40601" data-name="Path 40601" d="M268.8,217.278l.359-3.506a74.527,74.527,0,0,0,.39-7.608,75.317,75.317,0,0,0-3.274-21.909l-1.022-3.37,9.207-2.8a83.622,83.622,0,0,0-12.229-22.938l-7.468,6.091-2.225-2.747a74.8,74.8,0,0,0-22.892-18.855l-3.094-1.663,4.511-8.449a84.434,84.434,0,0,0-24.848-7.581l-.982,9.563-3.5-.36a74.5,74.5,0,0,0-16.987.2l-.011,0a75.882,75.882,0,0,0-12.519,2.681l-3.37,1.023-2.8-9.207q-1.069.371-2.12.77c-.254.1-.509.194-.762.294A83.816,83.816,0,0,0,143.1,138.075l6.09,7.469-2.748,2.224a74.432,74.432,0,0,0-17.439,20.369q-.728,1.244-1.416,2.522l-1.663,3.094-8.455-4.515a83.932,83.932,0,0,0-7.574,24.855l2.85.289,6.713.689-.36,3.5c-.178,1.75-.3,3.522-.351,5.293q-.037,1.162-.037,2.318a75.337,75.337,0,0,0,.622,9.607,76.332,76.332,0,0,0,2.649,12.3l1.023,3.37-9.206,2.8q.594,1.706,1.257,3.374a84.467,84.467,0,0,0,10.933,19.533l7.453-6.075,2.225,2.73a75.5,75.5,0,0,0,22.943,18.887l3.094,1.663-4.511,8.452a84.366,84.366,0,0,0,24.823,7.589l.968-9.562,3.509.36a74.341,74.341,0,0,0,7.586.387,75.459,75.459,0,0,0,21.966-3.282l3.369-1.024,2.8,9.209a83.563,83.563,0,0,0,22.9-12.217l-6.089-7.47,2.746-2.222a74.836,74.836,0,0,0,18.888-22.9l1.663-3.094,8.452,4.511a84.457,84.457,0,0,0,7.58-24.855Zm-31.467,5.8a46.356,46.356,0,0,1-87.542-3.432,46.679,46.679,0,0,1-1.859-9.731q-.066-.818-.1-1.645c-.033-.707-.05-1.414-.05-2.116a46.42,46.42,0,0,1,46.407-46.339h.387c1.407.013,2.825.09,4.225.229a46.58,46.58,0,0,1,21.244,7.672q1.224.823,2.391,1.719a46.469,46.469,0,0,1,18.094,36.777,45.953,45.953,0,0,1-2.714,15.582Q237.581,222.44,237.329,223.079Z" transform="translate(-105.969 -118.016)" fill="none" stroke="#fff" stroke-width="1.324"></path><path id="Path_40602" data-name="Path 40602" d="M195.274,163.6a42.886,42.886,0,0,0-47,46.078c-3.556-1.166-6.028-2.346-7.03-3.512-7.734-8.991,7.552-46.756,10.97-51.611s16-7.375,16-7.375,0-2.878-.359-8.452c-2.517,0-5.215-6.473-5.215-6.473l-2.518-4.316-.616-4.562q2.792-1.059,5.692-1.94l2.819,9.276a79.318,79.318,0,0,1,13.1-2.8l3.282,25.209Z" transform="translate(-102.804 -118.07)" fill="#83c4fc"></path><path id="Path_40603" data-name="Path 40603" d="M242.8,213.311c-.991.9-9.693,4.912-19.338,4.347A42.864,42.864,0,0,0,207.489,166.5l23.265-6.425s16.545-.18,18.7,3.057S246.761,209.713,242.8,213.311Z" transform="translate(-95.385 -113.88)" fill="#83c4fc"></path></g><g id="Group_10560" data-name="Group 10560" transform="translate(95.746 56.097)"><g id="Group_10559" data-name="Group 10559" clip-path="url(#clip-path-2)"><g id="Group_10558" data-name="Group 10558" transform="translate(15.136 37.371)"><path id="Path_40604" data-name="Path 40604" d="M197.9,151.611l23.4,12.726,11.9-29.431,6.12,1.539s-3.967,34.188-10.333,40.447-38.854-7.529-38.854-7.529C182.177,164.27,189.429,148.127,197.9,151.611Z" transform="translate(-133.862 -103.806)" fill="#f7a594"></path><g id="Group_10549" data-name="Group 10549" transform="translate(97.257 14.77)"><path id="Path_40605" data-name="Path 40605" d="M228.424,139.871s-2-6.564-1.523-8.257,7.041-3.333,7.284-2.539.729,2.742-3.536,3.493C233.2,135.393,235.854,140.8,228.424,139.871Z" transform="translate(-226.766 -119.231)" fill="#f7a594"></path><g id="Group_10548" data-name="Group 10548"><path id="Path_40606" data-name="Path 40606" d="M227.941,140.25s0-5.752,1.137-7.961c1.514-2.943,5.335-4.572,5.335-4.572s5.969,5.648,6.082,6.579-5.767,6.029-5.767,6.029S230.383,143.75,227.941,140.25Z" transform="translate(-226.646 -119.356)" fill="#f7a594"></path><path id="Path_40607" data-name="Path 40607" d="M229.253,133.657s2.89-14.083,5.094-13.463c1.016.286-1.7,13.739-1.7,13.739Z" transform="translate(-226.503 -120.174)" fill="#f7a594"></path><path id="Path_40608" data-name="Path 40608" d="M227.874,138.017a.083.083,0,0,0,.047,0,.078.078,0,0,0,.055-.094c-.491-1.922-1.274-5.294-.994-6.285.368-1.306,4.692-2.668,6.506-2.688.54-.007.62.114.631.151a2.044,2.044,0,0,1-.105,1.762c-.473.773-1.608,1.322-3.371,1.633l-.136.023.092.1a10.529,10.529,0,0,1,2.559,4.528.078.078,0,0,0,.089.063.077.077,0,0,0,.062-.089,10.545,10.545,0,0,0-2.505-4.5c1.733-.323,2.855-.887,3.34-1.679a2.236,2.236,0,0,0,.122-1.887c-.055-.181-.309-.265-.779-.26-1.837.021-6.253,1.389-6.651,2.8-.288,1.025.5,4.427.993,6.365A.078.078,0,0,0,227.874,138.017Z" transform="translate(-226.772 -119.239)" fill="#e6836f"></path><path id="Path_40609" data-name="Path 40609" d="M235.272,135.73l.062.023.052.017.032-.043a6,6,0,0,1,3.3-1.74.077.077,0,0,0-.024-.152,6.093,6.093,0,0,0-3.365,1.755l-.007,0c-1.331-.52-2.954-3.933-2.971-3.967a.075.075,0,0,0-.1-.037.077.077,0,0,0-.037.1C232.284,131.829,233.882,135.186,235.272,135.73Z" transform="translate(-226.183 -118.937)" fill="#e6836f"></path></g></g><path id="Path_40610" data-name="Path 40610" d="M193.919,148.662s4.9.654,16.662,8.168c-1.307,5.063-5.227,18.3-5.227,18.3s-17.968-5.553-20.419-11.6S185.1,146.212,193.919,148.662Z" transform="translate(-134.148 -102.351)" fill="#002e73"></path><g id="Group_10551" data-name="Group 10551" transform="translate(0 90.019)"><g id="Group_10550" data-name="Group 10550" transform="translate(0 140.527)"><path id="Path_40611" data-name="Path 40611" d="M141.295,336.572h18.571a2.216,2.216,0,0,0,.832-.745,171.95,171.95,0,0,1,2.333-20.463l-12.934-.527-2.929,10.275C142.837,328.074,137.671,334.428,141.295,336.572Z" transform="translate(-138.919 -314.837)" fill="#231f20"></path><path id="Path_40612" data-name="Path 40612" d="M161.386,334.97H139.369c-.559,0-.371-3.062.187-3.062l21.885.123C162.017,332.031,161.961,334.97,161.386,334.97Z" transform="translate(-139.032 -312.986)" fill="#231f20"></path></g><path id="Path_40613" data-name="Path 40613" d="M168.089,203.214c-6.472,9.953-11.2,58.048-20.115,130.462l13.181.7c3.961-19.289,8.425-29.068,12.96-56.872A245.387,245.387,0,0,0,193.5,205.774C196.31,187.73,174.156,178.255,168.089,203.214Z" transform="translate(-138.062 -188.06)" fill="#002e73"></path></g><g id="Group_10552" data-name="Group 10552" transform="translate(45.519 91.501)"><path id="Path_40614" data-name="Path 40614" d="M180.193,206.5a407.763,407.763,0,0,0,7.209,65.131c1.439,29.493,3.385,28.506,6.116,62.88l11.914-.157c1-14.729,8.949-83.385,2.778-127.452C205.227,187.046,178.289,180.476,180.193,206.5Z" transform="translate(-180.097 -189.397)" fill="#002e73"></path><path id="Path_40615" data-name="Path 40615" d="M192.354,320.324c-1.063,5.692-1.826,10.131-1.379,15.282l28.853.562s2.856-2.782-.735-6.954-10.41-1.758-14.826-9.048Z" transform="translate(-178.931 -175.214)" fill="#231f20"></path><path id="Path_40616" data-name="Path 40616" d="M221.208,334.97H190.554c-.559,0-.412-3.062.146-3.062l30.525.123C221.8,332.031,221.783,334.97,221.208,334.97Z" transform="translate(-179.001 -173.94)" fill="#231f20"></path></g><path id="Path_40617" data-name="Path 40617" d="M210.121,209.414c0,6.09-43.25,4.327-43.25-1.762-2.479-53.154-15.323-47.717-12.038-53.066,5.666-9.225,34.288-8.7,44.593-4.736,4.092,1.575,9.587,7.989,11.344,18.215.9,5.257-2.967,11.379-3.579,15.63C205.776,193.53,209.833,208,210.121,209.414Z" transform="translate(-137.376 -102.479)" fill="#002e73"></path><path id="Path_40618" data-name="Path 40618" d="M181.6,155.488a12.79,12.79,0,0,1-12.91-6.164l.511-14.776,8.37-.815a24.837,24.837,0,0,1,6.942,1.607l1.883,9.729.416,2.111C187.759,149.256,188.9,154.426,181.6,155.488Z" transform="translate(-135.815 -103.933)" fill="#f7a594"></path><path id="Path_40619" data-name="Path 40619" d="M171.691,137.607a18.7,18.7,0,0,0,14.379,7.176l-1.629-8.418Z" transform="translate(-135.49 -103.648)" fill="#e6836f"></path><g id="Group_10554" data-name="Group 10554" transform="translate(26.156 2.524)"><g id="Group_10553" data-name="Group 10553"><path id="Path_40620" data-name="Path 40620" d="M191.03,120.981c.656,2.911,2.009,9.3,1.788,12.245-.337,4.481-4.523,9.452-8.173,10.1-4.225.43-9.921-.828-13.014-3.485a42.652,42.652,0,0,1-6.585-10.992c-3.2-8.737,2.976-16.4,10.807-18.168S188.984,111.9,191.03,120.981Z" transform="translate(-162.46 -109.01)" fill="#f7a594"></path><path id="Path_40621" data-name="Path 40621" d="M167.838,134.742c-1.634-2.874.536-4.039,2.916-1.807-.407-2.169-2.88-8.525-.689-10.632,2.474-2.445,13.361-1.381,19.21-7.48,0,0-4.36-9.558-18.668-3.913C154.445,119.479,167.838,134.742,167.838,134.742Z" transform="translate(-162.628 -109.127)" fill="#73382a"></path><ellipse id="Ellipse_522" data-name="Ellipse 522" cx="2.741" cy="3.527" rx="2.741" ry="3.527" transform="translate(0.749 23.656) rotate(-39.723)" fill="#f7a594"></ellipse></g></g><path id="Path_40622" data-name="Path 40622" d="M157.458,151.545c4.862-.582,9.629,22.9,6.289,29.329-.009.476-.014.956-.028,1.44-.037,1.832-.082,3.722-.141,5.634-.028.846-.054,1.7-.082,2.549-.064,1.878-.139,3.764-.212,5.637-.6,14.506-1.5,28.042-1.5,28.042h50.652c-.4-9.947-1.857-20.158-2.849-28.042-.258-2.053-.484-3.949-.65-5.637q-.138-1.37-.218-2.549a20.7,20.7,0,0,1,.043-4.4,9.573,9.573,0,0,0,.113-1.238c.255-7.408-4.608-28.932-8.214-32.823a23.1,23.1,0,0,0-10.7-1.772,51.4,51.4,0,0,1-3.845,20.037S175.4,158.55,169.547,147.6C164.409,148.421,159.725,149.454,157.458,151.545Z" transform="translate(-137.034 -102.43)" fill="#f44260"></path><path id="Path_40623" data-name="Path 40623" d="M208.123,184.551a20.7,20.7,0,0,1,.043-4.4,9.573,9.573,0,0,0,.113-1.238H163.121c-.037,1.832-.082,3.722-.141,5.634Z" transform="translate(-136.435 -99.033)" fill="#fff"></path><path id="Path_40624" data-name="Path 40624" d="M162.715,191.937h46.3c-.258-2.053-.484-3.949-.65-5.636H162.927C162.862,188.178,162.788,190.064,162.715,191.937Z" transform="translate(-136.463 -98.232)" fill="#fff"></path><path id="Path_40625" data-name="Path 40625" d="M186.851,115.472a12.844,12.844,0,0,0,9.108.059c-.706,3.174-23.152,7.875-26.031,6.641S180.74,114.121,186.851,115.472Z" transform="translate(-135.724 -105.933)" fill="#5c2d22"></path><path id="Path_40626" data-name="Path 40626" d="M162.871,126.853c-.623-4.564-1.333-16.282,9.044-19.294,9.222-2.678,15.838,2.864,18.964,6.517,1.353.208,5-.78,5.638-.027.15.45.009,1.32-3.7,2.789l.019.035c-13.394,2.939-24.816,6.68-29.645,13.105a4.577,4.577,0,0,1-1.377.4C161.374,130.375,162.481,128.582,162.871,126.853Z" transform="translate(-136.572 -106.849)" fill="#fff890"></path><path id="Path_40627" data-name="Path 40627" d="M180.794,117.1s-4.217-9.942-14.209-7.287l-.194-.425a25.262,25.262,0,0,1,5.374-2.438c3.158-.5,10.471.721,14.68,8.393A25.48,25.48,0,0,1,180.794,117.1Z" transform="translate(-136.065 -106.849)" fill="#ffdd69"></path><g id="Group_10557" data-name="Group 10557" transform="translate(7.55 54.277)"><path id="Path_40628" data-name="Path 40628" d="M165.732,177.491l-6.205,17.264,26.757,16.971-.534,6.048s-35.955-7.464-39.285-15.79,7.8-43.915,7.8-43.915C158.062,148.963,164.629,169.895,165.732,177.491Z" transform="translate(-145.843 -155.815)" fill="#f79683"></path><path id="Path_40629" data-name="Path 40629" d="M183.018,206.61l14.071.356s-4.321,6.913-14.152,5.66C169.99,210.975,175.106,206.065,183.018,206.61Z" transform="translate(-142.677 -150.31)" fill="#f79683"></path><g id="Group_10556" data-name="Group 10556" transform="translate(33.382 12.28)"><path id="Path_40630" data-name="Path 40630" d="M240.159,205.168v.73a.614.614,0,0,1-.009.111,1.26,1.26,0,0,1-1.332.84H177.3a1.26,1.26,0,0,1-1.331-.84.615.615,0,0,1-.009-.111v-.73Z" transform="translate(-175.959 -162.742)" fill="#5d4f99"></path><path id="Path_40631" data-name="Path 40631" d="M240.149,205.927a1.26,1.26,0,0,1-1.332.84H177.3a1.26,1.26,0,0,1-1.331-.84Z" transform="translate(-175.958 -162.659)" fill="#241f3c"></path><g id="Group_10555" data-name="Group 10555" transform="translate(12.094)"><path id="Path_40632" data-name="Path 40632" d="M240.346,167.221l.355.348-.193.272-.457-.641Z" transform="translate(-181.101 -166.86)" fill="#241f3c"></path><path id="Path_40633" data-name="Path 40633" d="M238.081,209.211H188.174a1.268,1.268,0,0,1-1.282-1.54l6.586-39.237a1.9,1.9,0,0,1,1.8-1.541h49.907a1.268,1.268,0,0,1,1.281,1.541l-6.585,39.237A1.9,1.9,0,0,1,238.081,209.211Z" transform="translate(-186.869 -166.893)" fill="#5d4f99"></path></g><path id="Path_40634" data-name="Path 40634" d="M238.411,209.536H188.5a1.268,1.268,0,0,1-1.281-1.541l6.585-39.237a1.9,1.9,0,0,1,1.8-1.54h49.907a1.268,1.268,0,0,1,1.282,1.54l-6.586,39.237A1.9,1.9,0,0,1,238.411,209.536Z" transform="translate(-174.74 -166.858)" fill="#241f3c"></path><ellipse id="Ellipse_523" data-name="Ellipse 523" cx="6.841" cy="6.589" rx="6.841" ry="6.589" transform="matrix(0.114, -0.993, 0.993, 0.114, 35.49, 28.623)" fill="#48c6aa"></ellipse></g></g><path id="Path_40635" data-name="Path 40635" d="M165.107,180.255l-17.235-8.522s4.784-17,10.224-20.253c2.654,1.593,5.291,5.384,6.741,11.959A42.334,42.334,0,0,1,165.107,180.255Z" transform="translate(-138.073 -102.009)" fill="#002e73"></path><path id="Path_40636" data-name="Path 40636" d="M183.442,130.512a.181.181,0,0,0,.034,0c.075-.016,1.843-.378,2.405-1.315s-3.119-4.613-4.258-5.721a.173.173,0,1,0-.242.247c2.242,2.179,4.487,4.824,4.2,5.3-.483.8-2.16,1.151-2.177,1.154a.172.172,0,0,0,.033.341Z" transform="translate(-134.444 -105.052)" fill="#73382a"></path><path id="Path_40637" data-name="Path 40637" d="M181.187,133.663a15.971,15.971,0,0,0,5.454-1.025.172.172,0,0,0-.132-.318c-.063.025-6.31,2.568-10.63-.554a.173.173,0,0,0-.2.28A9.277,9.277,0,0,0,181.187,133.663Z" transform="translate(-135.065 -104.15)" fill="#73382a"></path><path id="Path_40638" data-name="Path 40638" d="M184.582,122.351c.157.683.6,1.165.981,1.076s.568-.714.41-1.4-.6-1.165-.981-1.076S184.423,121.668,184.582,122.351Z" transform="translate(-134.098 -105.321)" fill="#5c2d22"></path><path id="Path_40639" data-name="Path 40639" d="M174.564,125.107c.239.73.766,1.213,1.176,1.079s.551-.836.311-1.565-.766-1.214-1.176-1.08S174.325,124.377,174.564,125.107Z" transform="translate(-135.191 -105.041)" fill="#5c2d22"></path></g></g></g><path id="Path_40641" data-name="Path 40641" d="M146.366,209.238v28.486a2.218,2.218,0,0,1-2.219,2.218H116.441A88.22,88.22,0,0,1,111.6,229.7v-7.739l6.83-2.074a79.44,79.44,0,0,1-2.771-12.874h28.487A2.22,2.22,0,0,1,146.366,209.238Z" transform="translate(-31.126 -2.517)" fill="#83c4fc"></path><path id="Path_40642" data-name="Path 40642" d="M138.122,167.151v28.664a3.535,3.535,0,0,1-3.536,3.534H115.61q.085-2.843.372-5.652l-3.209-.33-6.337-.646-.082-.012a88.119,88.119,0,0,1,8.128-29.09h20.1A3.535,3.535,0,0,1,138.122,167.151Z" transform="translate(-31.695 -7.224)" fill="#83c4fc"></path><g id="Group_10562" data-name="Group 10562" transform="translate(223.997 43.915)"><g id="Group_10561" data-name="Group 10561"><path id="Path_40643" data-name="Path 40643" d="M325.191,110.176l-1.326-.2-3.25-.462a37.629,37.629,0,0,0-.86-14.861l4.5-1.174a42.855,42.855,0,0,0-1.389-4.36A41.806,41.806,0,0,0,317.1,78.677l-2.047,1.537-1.665,1.251a37.727,37.727,0,0,0-11.107-9.912l2.343-4a42.512,42.512,0,0,0-15.516-5.413l-.657,4.593a37.635,37.635,0,0,0-14.862.86l-1.175-4.5a42.036,42.036,0,0,0-14.8,7.158l2.79,3.712a37.677,37.677,0,0,0-9.913,11.1l-4-2.343a42.2,42.2,0,0,0-5.413,15.516l.038.009,3.025.431,1.531.217a37.7,37.7,0,0,0,.859,14.863l-4.5,1.174a42.272,42.272,0,0,0,7.136,14.788l3.712-2.789a38.076,38.076,0,0,0,11.126,9.924l-2.341,4a42.37,42.37,0,0,0,15.5,5.418l.152-1.022.5-3.571a37.738,37.738,0,0,0,14.879-.863l1.175,4.5a41.963,41.963,0,0,0,14.785-7.153l-2.789-3.713a37.789,37.789,0,0,0,9.928-11.108l4,2.341a42.49,42.49,0,0,0,5.413-15.516Zm-36.857,13.917A20.524,20.524,0,1,1,303.693,104.7,20.53,20.53,0,0,1,288.334,124.092Z" transform="translate(-241.079 -62.145)" fill="#c9f5f7"></path><path id="Path_40644" data-name="Path 40644" d="M297.718,103.08a20.737,20.737,0,0,0-1.557-8.341L309.076,78.6l2.047-1.537A41.807,41.807,0,0,1,316.89,87.5Z" transform="translate(-235.105 -60.527)" fill="#a5eef2"></path></g></g><g id="Group_10565" data-name="Group 10565" transform="translate(210.303 46.982)"><path id="Path_40645" data-name="Path 40645" d="M368.044,64.912l7.242,5.308a4.288,4.288,0,0,1,1.752,3.458v34.59L363.551,95.452Z" transform="translate(-214.102 -64.912)" fill="url(#linear-gradient-2)"></path><g id="Group_10564" data-name="Group 10564" transform="translate(0)"><path id="Path_40646" data-name="Path 40646" d="M228.726,108.738l157.937-7.373V69.849L228.726,79.6Z" transform="translate(-228.726 -64.377)" fill="url(#linear-gradient-3)"></path><path id="Path_40647" data-name="Path 40647" d="M232.932,96.509l148-7.671a.7.7,0,0,1,.771.675h0a.793.793,0,0,1-.771.754l-148,7.569a.625.625,0,0,1-.665-.629h0A.708.708,0,0,1,232.932,96.509Z" transform="translate(-228.342 -62.317)" fill="url(#linear-gradient-4)"></path><path id="Path_40648" data-name="Path 40648" d="M323.6,93.81a6.559,6.559,0,0,1-6.328,6.337l-35.285,1.675a5.652,5.652,0,0,1-6.072-5.605Z" transform="translate(-223.608 -61.778)" fill="#fff" opacity="0.6" style="mix-blend-mode: soft-light;isolation: isolate"></path><path id="Path_40649" data-name="Path 40649" d="M229.591,77.757l2.562-3.136,150.515-9.709,2.985,3.018a3.468,3.468,0,0,1,1.011,2.454L228.726,80.14A3.779,3.779,0,0,1,229.591,77.757Z" transform="translate(-228.726 -64.912)" fill="url(#linear-gradient-5)"></path><g id="Group_10563" data-name="Group 10563" transform="translate(4.313 1.538)"><path id="Path_40650" data-name="Path 40650" d="M340.363,69.942l28.546-1.793a.622.622,0,0,1,.694.6.723.723,0,0,1-.694.686l-28.546,1.777a.609.609,0,0,1-.675-.593A.707.707,0,0,1,340.363,69.942Z" transform="translate(-221.004 -66.099)" fill="url(#linear-gradient-6)"></path><path id="Path_40651" data-name="Path 40651" d="M340.363,68.123,368.909,66.3a.622.622,0,0,1,.694.6.725.725,0,0,1-.694.687l-28.546,1.8a.607.607,0,0,1-.675-.591A.708.708,0,0,1,340.363,68.123Z" transform="translate(-221.004 -66.3)" fill="url(#linear-gradient-7)"></path><path id="Path_40652" data-name="Path 40652" d="M312.363,71.7l27.684-1.739a.608.608,0,0,1,.674.591.707.707,0,0,1-.674.676l-27.684,1.723a.6.6,0,0,1-.655-.584A.692.692,0,0,1,312.363,71.7Z" transform="translate(-224.039 -65.903)" fill="url(#linear-gradient-8)"></path><path id="Path_40653" data-name="Path 40653" d="M312.363,69.905l27.684-1.767a.606.606,0,0,1,.674.591.708.708,0,0,1-.674.676l-27.684,1.749a.594.594,0,0,1-.655-.583A.691.691,0,0,1,312.363,69.905Z" transform="translate(-224.039 -66.1)" fill="url(#linear-gradient-9)"></path><path id="Path_40654" data-name="Path 40654" d="M285.2,73.4l26.861-1.687a.593.593,0,0,1,.653.583.689.689,0,0,1-.653.664L285.2,74.629a.581.581,0,0,1-.636-.575A.677.677,0,0,1,285.2,73.4Z" transform="translate(-226.983 -65.713)" fill="url(#linear-gradient-10)"></path><path id="Path_40655" data-name="Path 40655" d="M285.2,71.633l26.861-1.714a.592.592,0,0,1,.653.582.69.69,0,0,1-.653.665l-26.861,1.7a.581.581,0,0,1-.636-.575A.678.678,0,0,1,285.2,71.633Z" transform="translate(-226.983 -65.907)" fill="url(#linear-gradient-11)"></path><path id="Path_40656" data-name="Path 40656" d="M258.825,75.051,284.9,73.411a.58.58,0,0,1,.634.575.673.673,0,0,1-.634.654l-26.074,1.623a.568.568,0,0,1-.617-.568A.659.659,0,0,1,258.825,75.051Z" transform="translate(-229.841 -65.528)" fill="url(#linear-gradient-12)"></path><path id="Path_40657" data-name="Path 40657" d="M258.825,73.311,284.9,71.647a.579.579,0,0,1,.634.574.674.674,0,0,1-.634.655l-26.074,1.648a.568.568,0,0,1-.617-.568A.662.662,0,0,1,258.825,73.311Z" transform="translate(-229.841 -65.72)" fill="url(#linear-gradient-13)"></path><path id="Path_40658" data-name="Path 40658" d="M233.217,76.655l25.322-1.592a.567.567,0,0,1,.615.568.658.658,0,0,1-.615.644L233.217,77.85a.555.555,0,0,1-.6-.56A.645.645,0,0,1,233.217,76.655Z" transform="translate(-232.617 -65.349)" fill="url(#linear-gradient-14)"></path><path id="Path_40659" data-name="Path 40659" d="M258.538,74.536l-25.322,1.6a.555.555,0,0,1-.6-.56.647.647,0,0,1,.6-.635l25.322-1.616a.565.565,0,0,1,.615.566A.658.658,0,0,1,258.538,74.536Z" transform="translate(-232.617 -65.538)" fill="url(#linear-gradient-15)"></path></g><path id="Path_40660" data-name="Path 40660" d="M228.726,79.463,363.31,71.15a15.019,15.019,0,0,1-4.033,8.5c-10.2,10.243-31.271-2.369-55.8,3.453-10.731,2.546-23.261,8.9-36.148,23.7l-38.6,1.8Z" transform="translate(-228.726 -64.235)" fill="#fff" opacity="0.3" style="mix-blend-mode: soft-light;isolation: isolate"></path></g><path id="Path_40661" data-name="Path 40661" d="M391.661,104.649l-5-6.368-157.937,7.373,6.058,5.253Z" transform="translate(-228.726 -61.293)" fill="url(#linear-gradient-16)"></path></g></g></g><g id="Group_10541" data-name="Group 10541" transform="translate(5.236 1196.256)"><path id="Path_39564" data-name="Path 39564" d="M109.017,252.694l59.118-51.681a8.8,8.8,0,0,0,0-13.253l-59.118-51.681a8.8,8.8,0,0,0-14.6,6.625V246.069A8.8,8.8,0,0,0,109.017,252.694Z" transform="translate(57.618 0)" fill="#f25151"></path><g id="Group_9792" data-name="Group 9792" transform="translate(123.915 153.066)"><path id="Path_39565" data-name="Path 39565" d="M89.238,141.662a6.217,6.217,0,1,0,6.216,6.218A6.219,6.219,0,0,0,89.238,141.662Z" transform="translate(-83.02 -141.662)" fill="#f25151"></path><path id="Path_39566" data-name="Path 39566" d="M89.238,151.149a6.217,6.217,0,1,0,6.216,6.218A6.219,6.219,0,0,0,89.238,151.149Z" transform="translate(-83.02 -127.748)" fill="#f25151"></path><circle id="Ellipse_510" data-name="Ellipse 510" cx="6.217" cy="6.217" r="6.217" transform="translate(0.001 46.803)" fill="#f25151"></circle><path id="Path_39567" data-name="Path 39567" d="M89.238,170.123a6.218,6.218,0,1,0,6.216,6.218A6.219,6.219,0,0,0,89.238,170.123Z" transform="translate(-83.02 -99.92)" fill="#f25151"></path></g><g id="Group_9793" data-name="Group 9793" transform="translate(100.99 153.066)"><path id="Path_39568" data-name="Path 39568" d="M79.944,141.662a6.217,6.217,0,1,0,6.218,6.218A6.219,6.219,0,0,0,79.944,141.662Z" transform="translate(-73.726 -141.662)" fill="#f25151"></path><path id="Path_39569" data-name="Path 39569" d="M79.944,151.149a6.217,6.217,0,1,0,6.218,6.218A6.219,6.219,0,0,0,79.944,151.149Z" transform="translate(-73.726 -127.748)" fill="#f25151"></path><path id="Path_39570" data-name="Path 39570" d="M79.944,160.636a6.217,6.217,0,1,0,6.218,6.218A6.219,6.219,0,0,0,79.944,160.636Z" transform="translate(-73.726 -113.834)" fill="#f25151"></path><path id="Path_39571" data-name="Path 39571" d="M79.944,170.123a6.218,6.218,0,1,0,6.218,6.218A6.219,6.219,0,0,0,79.944,170.123Z" transform="translate(-73.726 -99.92)" fill="#f25151"></path></g><g id="Group_9794" data-name="Group 9794" transform="translate(78.065 176.467)"><path id="Path_39572" data-name="Path 39572" d="M70.648,151.149a6.217,6.217,0,1,0,6.218,6.218A6.217,6.217,0,0,0,70.648,151.149Z" transform="translate(-64.432 -151.149)" fill="#f25151"></path><path id="Path_39573" data-name="Path 39573" d="M70.648,160.636a6.217,6.217,0,1,0,6.218,6.218A6.217,6.217,0,0,0,70.648,160.636Z" transform="translate(-64.432 -137.235)" fill="#f25151"></path></g><g id="Group_9795" data-name="Group 9795" transform="translate(55.137 176.467)"><path id="Path_39574" data-name="Path 39574" d="M61.353,151.149a6.217,6.217,0,1,0,6.218,6.218A6.219,6.219,0,0,0,61.353,151.149Z" transform="translate(-55.136 -151.149)" fill="#f25151"></path><circle id="Ellipse_511" data-name="Ellipse 511" cx="6.217" cy="6.217" r="6.217" transform="translate(0 23.402)" fill="#f25151"></circle></g></g></g></svg>