<svg xmlns="http://www.w3.org/2000/svg" id="healthcare-covid19-coronavirus-hand-hearth" width="82.599" height="82.989" viewBox="0 0 82.599 82.989"><path id="Path_54025" data-name="Path 54025" d="M169.375,60.031h-4.163V55.868a1.388,1.388,0,0,0-1.388-1.388h-5.551a1.388,1.388,0,0,0-1.388,1.388v4.163h-4.163a1.388,1.388,0,0,0-1.388,1.388V66.97a1.388,1.388,0,0,0,1.388,1.388h4.163v4.163a1.388,1.388,0,0,0,1.388,1.388h5.551a1.388,1.388,0,0,0,1.388-1.388V68.358h4.163a1.388,1.388,0,0,0,1.388-1.388V61.419A1.388,1.388,0,0,0,169.375,60.031Zm-1.388,5.551h-4.163a1.388,1.388,0,0,0-1.388,1.388v4.163h-2.775V66.97a1.388,1.388,0,0,0-1.388-1.388H154.11V62.807h4.163a1.388,1.388,0,0,0,1.388-1.388V57.256h2.775v4.163a1.388,1.388,0,0,0,1.388,1.388h4.163Z" transform="translate(-119.749 -45.042)" fill="#fff"></path><path id="Path_54026" data-name="Path 54026" d="M236.856,90.087a6.309,6.309,0,0,0,.042-.736,5.579,5.579,0,0,0-4.413-5.426,5.649,5.649,0,0,0-6.522,4.122l-6.106,17.569a2.27,2.27,0,0,0-.264.125l-12.268,7.189a12.513,12.513,0,0,0-6.175,10.769v13.073a1.388,1.388,0,0,0-1.388,1.388v11.1a1.388,1.388,0,0,0,1.388,1.388h19.428a1.388,1.388,0,0,0,1.388-1.388v-11.1a1.388,1.388,0,0,0-1.388-1.388v-3.053a4.217,4.217,0,0,1,1.388-3.109l9.381-8.34a6.844,6.844,0,0,0,2.109-3.4l6.023-22.523a5.491,5.491,0,0,0,.194-1.443A5.577,5.577,0,0,0,236.856,90.087Zm-8.243-1.221a2.932,2.932,0,0,1,3.3-2.22,2.775,2.775,0,0,1,2.207,2.706v.028a5.69,5.69,0,0,0-5.4,4.247l-3.872,11.948a5.83,5.83,0,0,0-1.86-.527Zm-9.423,59.007H202.537v-8.326H219.19ZM236.8,95.624l-6.037,22.537a4.138,4.138,0,0,1-1.249,2.026l-9.4,8.34a7.016,7.016,0,0,0-2.318,5.19v3.053H203.925V123.7a9.786,9.786,0,0,1,4.8-8.382l12.254-7.175a2.776,2.776,0,0,1,3.8,1.013,2.859,2.859,0,0,1,.278,2.109,2.776,2.776,0,0,1-1.3,1.679l-7.952,4.593a1.388,1.388,0,0,0,1.388,2.4l7.952-4.593a5.479,5.479,0,0,0,2.6-3.372,5.561,5.561,0,0,0-.555-4.2l-.083-.125,4.288-13.225a2.932,2.932,0,0,1,3.3-2.22A2.775,2.775,0,0,1,236.9,94.9,2.392,2.392,0,0,1,236.8,95.624Z" transform="translate(-157.074 -67.659)" fill="#fff"></path><path id="Path_54027" data-name="Path 54027" d="M52.083,136.787V123.714a12.513,12.513,0,0,0-6.175-10.769l-12.268-7.2c-.083-.042-.18-.069-.264-.111L27.312,88.16a5.7,5.7,0,0,0-6.564-4.219,5.579,5.579,0,0,0-4.413,5.426,6.352,6.352,0,0,0,.042.736,5.577,5.577,0,0,0-2.817,4.815,6.135,6.135,0,0,0,.18,1.443l6.037,22.509a6.822,6.822,0,0,0,2.109,3.414l9.367,8.34a4.18,4.18,0,0,1,1.4,3.109v3.053a1.388,1.388,0,0,0-1.388,1.388v11.1a1.388,1.388,0,0,0,1.388,1.388H52.083a1.388,1.388,0,0,0,1.388-1.388v-11.1A1.388,1.388,0,0,0,52.083,136.787ZM19.111,89.367A2.775,2.775,0,0,1,21.3,86.661a3,3,0,0,1,3.358,2.318l5.579,16.084a5.828,5.828,0,0,0-1.86.527L24.537,93.711A5.758,5.758,0,0,0,19.111,89.4ZM33.1,128.543l-9.381-8.34a4.114,4.114,0,0,1-1.249-2.04L16.418,95.64a2.943,2.943,0,0,1-.083-.722,2.775,2.775,0,0,1,2.193-2.706,2.975,2.975,0,0,1,3.344,2.29l4.26,13.156-.083.125a5.561,5.561,0,0,0-.555,4.2,5.479,5.479,0,0,0,2.6,3.372l7.952,4.593a1.388,1.388,0,0,0,1.388-2.4l-7.952-4.593a2.775,2.775,0,0,1-1.3-1.679,2.859,2.859,0,0,1,.278-2.109,2.776,2.776,0,0,1,3.789-1.027l12.268,7.188a9.786,9.786,0,0,1,4.8,8.382v13.073H35.43v-3.053A6.98,6.98,0,0,0,33.1,128.543Zm17.6,19.345H34.043v-8.326H50.7Z" transform="translate(-13.56 -67.675)" fill="#fff"></path><path id="Path_54028" data-name="Path 54028" d="M133.7,17.38a13.869,13.869,0,0,0-19.632,0h0A13.875,13.875,0,0,0,94.44,37l18.651,18.651a1.388,1.388,0,0,0,1.962,0L133.705,37A13.886,13.886,0,0,0,133.7,17.38ZM114.071,52.7,96.4,35.034a11.1,11.1,0,0,1,7.859-18.947,10.985,10.985,0,0,1,7.845,3.257l.985.985a1.388,1.388,0,0,0,1.962,0l.988-.988a11.1,11.1,0,0,1,15.7,15.69Z" transform="translate(-72.772 -13.309)" fill="#fff"></path></svg>